<mxfile host="Electron" agent="Mozilla/5.0 (X11; Linux x86_64) AppleWebKit/537.36 (KHTML, like Gecko) draw.io/24.7.17 Chrome/128.0.6613.36 Electron/32.0.1 Safari/537.36" version="24.7.17">
  <diagram name="Page-1" id="PvO7PaFhvo8tSTidr793">
    <mxGraphModel dx="2712" dy="1521" grid="0" gridSize="10" guides="1" tooltips="1" connect="1" arrows="1" fold="1" page="0" pageScale="1" pageWidth="850" pageHeight="1100" math="0" shadow="0">
      <root>
        <mxCell id="0" />
        <mxCell id="1" parent="0" />
        <mxCell id="tGHlBoQcHOteD8q6I_E0-1" value="Classe SistemaChamadas" style="rounded=0;whiteSpace=wrap;html=1;strokeWidth=2;fontSize=16;" parent="1" vertex="1">
          <mxGeometry x="-577" y="-50" width="250" height="109" as="geometry" />
        </mxCell>
        <mxCell id="IoiNk8IZeVNX4eK0WC4M-1" value="Aguardando Chamada" style="swimlane;fontStyle=0;childLayout=stackLayout;horizontal=1;startSize=26;fillColor=none;horizontalStack=0;resizeParent=1;resizeParentMax=0;resizeLast=0;collapsible=1;marginBottom=0;whiteSpace=wrap;html=1;rounded=1;" parent="1" vertex="1">
          <mxGeometry x="-531.5" y="198" width="159" height="61" as="geometry" />
        </mxCell>
        <mxCell id="IoiNk8IZeVNX4eK0WC4M-2" value="Aguarda por evento de chamada" style="text;strokeColor=none;fillColor=none;align=left;verticalAlign=top;spacingLeft=4;spacingRight=4;overflow=hidden;rotatable=0;points=[[0,0.5],[1,0.5]];portConstraint=eastwest;whiteSpace=wrap;html=1;" parent="IoiNk8IZeVNX4eK0WC4M-1" vertex="1">
          <mxGeometry y="26" width="159" height="35" as="geometry" />
        </mxCell>
        <mxCell id="IoiNk8IZeVNX4eK0WC4M-3" value="" style="ellipse;html=1;shape=startState;fillColor=#000000;strokeColor=#ff0000;" parent="1" vertex="1">
          <mxGeometry x="-467" y="108" width="30" height="30" as="geometry" />
        </mxCell>
        <mxCell id="IoiNk8IZeVNX4eK0WC4M-4" value="" style="edgeStyle=orthogonalEdgeStyle;html=1;verticalAlign=bottom;endArrow=open;endSize=8;strokeColor=#ff0000;rounded=0;fontSize=12;curved=1;" parent="1" source="IoiNk8IZeVNX4eK0WC4M-3" edge="1">
          <mxGeometry relative="1" as="geometry">
            <mxPoint x="-452" y="198" as="targetPoint" />
          </mxGeometry>
        </mxCell>
        <mxCell id="UVrMw299oJDWgqpV7a1R-3" style="edgeStyle=none;curved=0;rounded=1;orthogonalLoop=1;jettySize=auto;html=1;exitX=0;exitY=0.5;exitDx=0;exitDy=0;entryX=0.5;entryY=0;entryDx=0;entryDy=0;fontSize=12;startSize=8;endSize=8;" edge="1" parent="1" source="IoiNk8IZeVNX4eK0WC4M-5" target="UVrMw299oJDWgqpV7a1R-1">
          <mxGeometry relative="1" as="geometry">
            <Array as="points">
              <mxPoint x="-646" y="352" />
            </Array>
          </mxGeometry>
        </mxCell>
        <mxCell id="UVrMw299oJDWgqpV7a1R-4" value="[chamada para andar VIP]" style="edgeLabel;html=1;align=center;verticalAlign=middle;resizable=0;points=[];fontSize=12;fontFamily=Helvetica;fontColor=default;labelBackgroundColor=default;" vertex="1" connectable="0" parent="UVrMw299oJDWgqpV7a1R-3">
          <mxGeometry x="-0.0079" y="-2" relative="1" as="geometry">
            <mxPoint x="18" y="-9" as="offset" />
          </mxGeometry>
        </mxCell>
        <mxCell id="UVrMw299oJDWgqpV7a1R-14" style="edgeStyle=none;shape=connector;curved=0;rounded=1;orthogonalLoop=1;jettySize=auto;html=1;exitX=1;exitY=0.5;exitDx=0;exitDy=0;entryX=0.5;entryY=0;entryDx=0;entryDy=0;strokeColor=default;align=center;verticalAlign=middle;fontFamily=Helvetica;fontSize=12;fontColor=default;labelBackgroundColor=default;startSize=8;endArrow=classic;endSize=8;" edge="1" parent="1" source="IoiNk8IZeVNX4eK0WC4M-5" target="UVrMw299oJDWgqpV7a1R-12">
          <mxGeometry relative="1" as="geometry">
            <Array as="points">
              <mxPoint x="-287" y="351" />
            </Array>
          </mxGeometry>
        </mxCell>
        <mxCell id="UVrMw299oJDWgqpV7a1R-15" value="[chamada para andar comum]" style="edgeLabel;html=1;align=center;verticalAlign=middle;resizable=0;points=[];fontSize=12;fontFamily=Helvetica;fontColor=default;labelBackgroundColor=default;" vertex="1" connectable="0" parent="UVrMw299oJDWgqpV7a1R-14">
          <mxGeometry x="-0.3068" y="3" relative="1" as="geometry">
            <mxPoint x="21" y="-9" as="offset" />
          </mxGeometry>
        </mxCell>
        <mxCell id="IoiNk8IZeVNX4eK0WC4M-5" value="" style="ellipse;whiteSpace=wrap;html=1;aspect=fixed;strokeWidth=2;" parent="1" vertex="1">
          <mxGeometry x="-470" y="335" width="31" height="31" as="geometry" />
        </mxCell>
        <mxCell id="IoiNk8IZeVNX4eK0WC4M-6" style="edgeStyle=none;curved=1;rounded=0;orthogonalLoop=1;jettySize=auto;html=1;exitX=0.5;exitY=1;exitDx=0;exitDy=0;entryX=0.5;entryY=0;entryDx=0;entryDy=0;fontSize=12;startSize=8;endSize=8;" parent="1" target="IoiNk8IZeVNX4eK0WC4M-5" edge="1">
          <mxGeometry relative="1" as="geometry">
            <mxPoint x="-454" y="259" as="sourcePoint" />
          </mxGeometry>
        </mxCell>
        <mxCell id="IoiNk8IZeVNX4eK0WC4M-7" value="[chamada recebida]" style="edgeLabel;html=1;align=center;verticalAlign=middle;resizable=0;points=[];fontSize=12;" parent="IoiNk8IZeVNX4eK0WC4M-6" vertex="1" connectable="0">
          <mxGeometry x="-0.1429" relative="1" as="geometry">
            <mxPoint as="offset" />
          </mxGeometry>
        </mxCell>
        <mxCell id="UVrMw299oJDWgqpV7a1R-1" value="Realizando Reconhecimento Facial" style="swimlane;fontStyle=0;childLayout=stackLayout;horizontal=1;startSize=31;fillColor=none;horizontalStack=0;resizeParent=1;resizeParentMax=0;resizeLast=0;collapsible=1;marginBottom=0;whiteSpace=wrap;html=1;rounded=1;" vertex="1" parent="1">
          <mxGeometry x="-727" y="395" width="161" height="77" as="geometry" />
        </mxCell>
        <mxCell id="UVrMw299oJDWgqpV7a1R-2" value="do / verificarUsuario(biometria)" style="text;strokeColor=none;fillColor=none;align=left;verticalAlign=top;spacingLeft=4;spacingRight=4;overflow=hidden;rotatable=0;points=[[0,0.5],[1,0.5]];portConstraint=eastwest;whiteSpace=wrap;html=1;" vertex="1" parent="UVrMw299oJDWgqpV7a1R-1">
          <mxGeometry y="31" width="161" height="46" as="geometry" />
        </mxCell>
        <mxCell id="UVrMw299oJDWgqpV7a1R-5" value="Chamando Elevador" style="swimlane;fontStyle=0;childLayout=stackLayout;horizontal=1;startSize=26;fillColor=none;horizontalStack=0;resizeParent=1;resizeParentMax=0;resizeLast=0;collapsible=1;marginBottom=0;whiteSpace=wrap;html=1;rounded=1;" vertex="1" parent="1">
          <mxGeometry x="-726" y="562" width="161" height="66" as="geometry" />
        </mxCell>
        <mxCell id="UVrMw299oJDWgqpV7a1R-6" value="Adiciona andar na fila de&lt;div&gt;chamadas&lt;/div&gt;" style="text;strokeColor=none;fillColor=none;align=left;verticalAlign=top;spacingLeft=4;spacingRight=4;overflow=hidden;rotatable=0;points=[[0,0.5],[1,0.5]];portConstraint=eastwest;whiteSpace=wrap;html=1;" vertex="1" parent="UVrMw299oJDWgqpV7a1R-5">
          <mxGeometry y="26" width="161" height="40" as="geometry" />
        </mxCell>
        <mxCell id="UVrMw299oJDWgqpV7a1R-7" style="edgeStyle=none;shape=connector;curved=0;rounded=1;orthogonalLoop=1;jettySize=auto;html=1;entryX=0.5;entryY=0;entryDx=0;entryDy=0;strokeColor=default;align=center;verticalAlign=middle;fontFamily=Helvetica;fontSize=12;fontColor=default;labelBackgroundColor=default;startSize=8;endArrow=classic;endSize=8;" edge="1" parent="1" source="UVrMw299oJDWgqpV7a1R-2" target="UVrMw299oJDWgqpV7a1R-5">
          <mxGeometry relative="1" as="geometry" />
        </mxCell>
        <mxCell id="UVrMw299oJDWgqpV7a1R-8" value="[acesso autorizado]" style="edgeLabel;html=1;align=center;verticalAlign=middle;resizable=0;points=[];fontSize=12;fontFamily=Helvetica;fontColor=default;labelBackgroundColor=default;" vertex="1" connectable="0" parent="UVrMw299oJDWgqpV7a1R-7">
          <mxGeometry x="-0.1481" relative="1" as="geometry">
            <mxPoint as="offset" />
          </mxGeometry>
        </mxCell>
        <mxCell id="UVrMw299oJDWgqpV7a1R-10" style="edgeStyle=none;shape=connector;curved=0;rounded=1;orthogonalLoop=1;jettySize=auto;html=1;entryX=0.5;entryY=0;entryDx=0;entryDy=0;strokeColor=default;align=center;verticalAlign=middle;fontFamily=Helvetica;fontSize=12;fontColor=default;labelBackgroundColor=default;startSize=8;endArrow=classic;endSize=8;" edge="1" parent="1" source="UVrMw299oJDWgqpV7a1R-6">
          <mxGeometry relative="1" as="geometry">
            <mxPoint x="-645.5" y="705" as="targetPoint" />
          </mxGeometry>
        </mxCell>
        <mxCell id="UVrMw299oJDWgqpV7a1R-11" value="" style="ellipse;html=1;shape=endState;fillColor=#000000;strokeColor=#ff0000;fontFamily=Helvetica;fontSize=12;fontColor=default;labelBackgroundColor=default;" vertex="1" parent="1">
          <mxGeometry x="-660.5" y="704" width="30" height="30" as="geometry" />
        </mxCell>
        <mxCell id="UVrMw299oJDWgqpV7a1R-12" value="Chamando Elevador" style="swimlane;fontStyle=0;childLayout=stackLayout;horizontal=1;startSize=26;fillColor=none;horizontalStack=0;resizeParent=1;resizeParentMax=0;resizeLast=0;collapsible=1;marginBottom=0;whiteSpace=wrap;html=1;rounded=1;" vertex="1" parent="1">
          <mxGeometry x="-368" y="400.5" width="161" height="66" as="geometry" />
        </mxCell>
        <mxCell id="UVrMw299oJDWgqpV7a1R-13" value="Adiciona andar na fila de&lt;div&gt;chamadas&lt;/div&gt;" style="text;strokeColor=none;fillColor=none;align=left;verticalAlign=top;spacingLeft=4;spacingRight=4;overflow=hidden;rotatable=0;points=[[0,0.5],[1,0.5]];portConstraint=eastwest;whiteSpace=wrap;html=1;" vertex="1" parent="UVrMw299oJDWgqpV7a1R-12">
          <mxGeometry y="26" width="161" height="40" as="geometry" />
        </mxCell>
        <mxCell id="UVrMw299oJDWgqpV7a1R-16" value="" style="ellipse;html=1;shape=endState;fillColor=#000000;strokeColor=#ff0000;fontFamily=Helvetica;fontSize=12;fontColor=default;labelBackgroundColor=default;" vertex="1" parent="1">
          <mxGeometry x="-302.5" y="540" width="30" height="30" as="geometry" />
        </mxCell>
        <mxCell id="UVrMw299oJDWgqpV7a1R-17" style="edgeStyle=none;shape=connector;curved=0;rounded=1;orthogonalLoop=1;jettySize=auto;html=1;entryX=0.5;entryY=0;entryDx=0;entryDy=0;strokeColor=default;align=center;verticalAlign=middle;fontFamily=Helvetica;fontSize=12;fontColor=default;labelBackgroundColor=default;startSize=8;endArrow=classic;endSize=8;" edge="1" parent="1" source="UVrMw299oJDWgqpV7a1R-13" target="UVrMw299oJDWgqpV7a1R-16">
          <mxGeometry relative="1" as="geometry" />
        </mxCell>
      </root>
    </mxGraphModel>
  </diagram>
</mxfile>
